<svg xmlns="http://www.w3.org/2000/svg" xmlns:xlink="http://www.w3.org/1999/xlink" xmlns:lucid="lucid" width="1760" height="1001.5"><g transform="translate(-560 -519)" lucid:page-tab-id="0_0"><path d="M500 500h2000v1500H500z" fill="#fff"/><path d="M640 526a6 6 0 0 1 6-6h148a6 6 0 0 1 6 6v108a6 6 0 0 1-6 6H646a6 6 0 0 1-6-6z" stroke="#3a414a" stroke-width="2" fill="#fff"/><use xlink:href="#a" transform="matrix(1,0,0,1,652,532) translate(43.20616319444444 57.52777777777778)"/><path d="M720 641.5v1.85m0 3.7v3.7m0 3.7v3.7m0 3.7v3.7m0 3.7v3.7m0 3.7v1.85" stroke="#3a414a" fill="none"/><path d="M720.48 641.5h-.96v-.5h.96zM720.48 679h-.96v-.5h.96z" stroke="#3a414a" stroke-width=".05" fill="#3a414a"/><path d="M720 741.5v1.92m0 3.86v3.85m0 3.85v3.85m0 3.84v3.86m0 3.85v3.85m0 3.85v3.84m0 3.86v3.85m0 3.85v3.85m0 3.84v3.86m0 3.85v3.85m0 3.85v1.92" stroke="#3a414a" fill="none"/><path d="M720.48 741.5h-.96v-.5h.96zM720.48 819h-.96v-.5h.96z" stroke="#3a414a" stroke-width=".05" fill="#3a414a"/><path d="M720 881.5v2.03m0 4.05v4.06m0 4.05v4.05m0 4.06v4.06m0 4.06v4.05m0 4.06v4.05m0 4.06v4.05m0 4.05v4.06m0 4.06v4.06m0 4.05v4.06m0 4.05v4.06m0 4.05v4.05m0 4.06v4.06m0 4.06v4.05m0 4.06v4.05m0 4.06v4.05m0 4.05v4.06m0 4.06v4.06m0 4.05v4.06m0 4.05v4.06m0 4.05v4.05m0 4.06v4.06m0 4.06v4.05m0 4.06v4.05m0 4.06v4.05m0 4.05v4.06m0 4.06v4.06m0 4.05v2.03" stroke="#3a414a" fill="none"/><path d="M720.48 881.5h-.96v-.5h.96zM720.48 1101h-.96v-.5h.96z" stroke="#3a414a" stroke-width=".05" fill="#3a414a"/><path d="M720 1101.5v2m0 4.03v4.02m0 4.02v4.02m0 4v4.03m0 4v4.03m0 4.02v4.02m0 4.02v4.02m0 4.02v4.02m0 4.02v4.02m0 4.02v4.02m0 4.02v4m0 4.03v4.03m0 4.02v4.02m0 4.02v4m0 4.03v4.02m0 4.02v4.02m0 4v4.03m0 4v4.03m0 4.02v4.02m0 4.02v4.02m0 4.02v4.02m0 4.02v4.02m0 4.02v4.02m0 4.02v4m0 4.03v4.03m0 4.02v4.02m0 4.02v4m0 4.03v4.02m0 4.02v4.02m0 4v4.03m0 4v4.03m0 4.02v4.02m0 4.02v4.02m0 4.02v4.02m0 4.02v4.02m0 4.02v4.02m0 4.02v4m0 4.03v4.03m0 4.02v4.02m0 4.02v4m0 4.03v4.02m0 4.02v4.02m0 4v4.03m0 4v4.03m0 4.02v4.02m0 4.02v4.02m0 4.02v4.02m0 4.02v4.02m0 4.02v4.02m0 4.02v4m0 4.03v4.03m0 4.02v4.02m0 4.02v2" stroke="#3a414a" fill="none"/><path d="M720.48 1101.5h-.96v-.5h.96z" stroke="#3a414a" stroke-width=".05" fill="#3a414a"/><path d="M720 1519.5v.5" stroke="#3a414a" fill="none"/><path d="M1080 526a6 6 0 0 1 6-6h148a6 6 0 0 1 6 6v108a6 6 0 0 1-6 6h-148a6 6 0 0 1-6-6z" stroke="#3a414a" stroke-width="2" fill="#fff"/><use xlink:href="#b" transform="matrix(1,0,0,1,1092,532) translate(37.82421875 57.52777777777778)"/><path d="M1160 961.5v2m0 4.02v4m0 4.03v4m0 4.02v4.02m0 4v4m0 4.03v4m0 4.02v4.02m0 4v4.02m0 4v4.02m0 4v4.03m0 4v4.02m0 4.02v4m0 4v4.03m0 4v4.02m0 4.02v4m0 4.02v4m0 4.02v4m0 4.03v4m0 4.02v4.02m0 4v4m0 4.03v4m0 4.02v4.02m0 4v4.02m0 4v4.02m0 4v4.03m0 4v2.02" stroke="#3a414a" fill="none"/><path d="M1160.47 961.5h-.94v-.5h.94z" stroke="#3a414a" stroke-width=".05" fill="#3a414a"/><path d="M1160 1162.15v.52M1160 641.5v2.02m0 4.04v4.04m0 4.05v4.04m0 4.03v4.04m0 4.04v4.05m0 4.05v4.04m0 4.04v4.04m0 4.04v4.04m0 4.05v4.04m0 4.03v4.04m0 4.04v4.05m0 4.05v4.04m0 4.04v2.02" stroke="#3a414a" fill="none"/><path d="M1160.47 641.5h-.94v-.5h.94zM1160.47 739h-.94v-.5h.94z" stroke="#3a414a" stroke-width=".05" fill="#3a414a"/><path d="M1160 801.5v2.02m0 4.04v4.04m0 4.05v4.04m0 4.03v4.04m0 4.04v4.05m0 4.05v4.04m0 4.04v4.04m0 4.04v4.04m0 4.05v4.04m0 4.03v4.04m0 4.04v4.05m0 4.05v4.04m0 4.04v2.02" stroke="#3a414a" fill="none"/><path d="M1160.47 801.5h-.94v-.5h.94zM1160.47 899h-.94v-.5h.94z" stroke="#3a414a" stroke-width=".05" fill="#3a414a"/><path d="M1160 1141.5v2m0 4.03v4.02m0 4.02v4.03m0 4.02v4.02m0 4.02v4.02m0 4.02v4.02m0 4.02v4.03m0 4.02v4m0 4.03v4.02m0 4.02v4.02m0 4v4.04m0 4.02v4.02m0 4.02v4.02m0 4.02v4.02m0 4.03v4m0 4.03v4.02m0 4.02v4.02m0 4v4.03m0 4.03v4.02m0 4.02v4.02m0 4.02v4.02m0 4.02v4.02m0 4.03v4.02m0 4.02v4.02m0 4v4.03m0 4.02v4.02m0 4.03v4.02m0 4.02v4.02m0 4.02v4.02m0 4.02v4.02m0 4.03v4.02m0 4v4.03m0 4.02v4.02m0 4.02v4m0 4.04v4.02m0 4.02v4.02m0 4.02v4.02m0 4.02v4.03m0 4v4.03m0 4.02v4.02m0 4.02v4m0 4.03v4.03m0 4.02v4.02m0 4.02v4.02m0 4.02v4.02m0 4.02v4.03m0 4.02v4.02m0 4.02v2M1160 1141.5v-.5M1160 1519.5v.5" stroke="#3a414a" fill="none"/><path d="M1520 526a6 6 0 0 1 6-6h148a6 6 0 0 1 6 6v108a6 6 0 0 1-6 6h-148a6 6 0 0 1-6-6z" stroke="#3a414a" stroke-width="2" fill="#fff"/><use xlink:href="#c" transform="matrix(1,0,0,1,1532,532) translate(33.34830729166667 57.52777777777778)"/><path d="M1600 1221.5v1.85m0 3.7v3.7m0 3.7v3.7m0 3.7v3.7m0 3.7v3.7m0 3.7v1.85M1600 1221.5v-.5" stroke="#3a414a" fill="none"/><path d="M1600.47 1259h-.94v-.5h.94z" stroke="#3a414a" stroke-width=".05" fill="#3a414a"/><path d="M1600 1187.07v2.03m0 4.05v4.05m0 4.06v4.05m0 4.07v4.05m0 4.05v2.03" stroke="#3a414a" fill="none"/><path d="M1600.47 1187.08h-.94v-.5h.94z" stroke="#3a414a" stroke-width=".05" fill="#3a414a"/><path d="M1600 1219.5v.5M1600 1441.5v1.95m0 3.9v3.9m0 3.9v3.9m0 3.9v3.9m0 3.9v3.9m0 3.9v3.9m0 3.9v3.9m0 3.9v3.9m0 3.9v3.9m0 3.9v3.9m0 3.9v1.95" stroke="#3a414a" fill="none"/><path d="M1600.47 1441.5h-.94v-.5h.94z" stroke="#3a414a" stroke-width=".05" fill="#3a414a"/><path d="M1600 1519.5v.5M1600 641.5v2m0 4.03v4.02m0 4.03v4.02m0 4.02v4.02m0 4.02v4.02m0 4.02v4.02m0 4.03v4.02m0 4.02v4m0 4.03v4.02m0 4.02v4.03m0 4.02v4.02m0 4.02v4.02m0 4.02v4.02m0 4.03v4.02m0 4.02v4m0 4.03v4.02m0 4.02v4.03m0 4.02v4.02m0 4.02v4.02m0 4.02v4.02m0 4.02v4.03m0 4.02v4m0 4.03v4.02m0 4.02v4.02m0 4.02v4.02m0 4.02v4.02m0 4.02v4.02m0 4.02v4.03m0 4.02v4m0 4.03v4.02m0 4.02v4.02m0 4.02v4.02m0 4.02v4.02m0 4.02v4.02m0 4.02v4.03m0 4.02v4m0 4.03v4.02m0 4.02v4.02m0 4.02v4.02m0 4.02v4.02m0 4.02v4.02m0 4.02v4.02m0 4.03v4m0 4.03v4.02m0 4.02v4.02m0 4v4.04m0 4.02v4.02m0 4.02v4.02m0 4.02v4.03m0 4.02v4m0 4.03v4.02m0 4.02v4.02m0 4v4.04m0 4.02v4.02m0 4.02v4.02m0 4.02v4.03m0 4.02v4m0 4.03v4.02m0 4.02v4.02m0 4v4.04m0 4.02v2" stroke="#3a414a" fill="none"/><path d="M1600.47 641.5h-.94v-.5h.94zM1600.47 1124.57h-.94v-.5h.94z" stroke="#3a414a" stroke-width=".05" fill="#3a414a"/><path d="M1600 1321.5v2.5m0 4.97v4.98m0 4.98v2.5" stroke="#3a414a" fill="none"/><path d="M1600.47 1321.5h-.94v-.5h.94z" stroke="#3a414a" stroke-width=".05" fill="#3a414a"/><path d="M1600 1341.4v.52M1600 1341.5v1.85m0 3.7v3.7m0 3.7v3.7m0 3.7v3.7m0 3.7v3.7m0 3.7v1.85M1600 1341.5v-.5" stroke="#3a414a" fill="none"/><path d="M1600.47 1379h-.94v-.5h.94z" stroke="#3a414a" stroke-width=".05" fill="#3a414a"/><path d="M700 686a6 6 0 0 1 6-6h28a6 6 0 0 1 6 6v48a6 6 0 0 1-6 6h-28a6 6 0 0 1-6-6zM1140 746a6 6 0 0 1 6-6h28a6 6 0 0 1 6 6v48a6 6 0 0 1-6 6h-28a6 6 0 0 1-6-6z" stroke="#3a414a" stroke-width="2" fill="#fff"/><path d="M760.5 740h303.12M760.5 740h-.5" stroke="#3a414a" fill="none"/><path d="M1078.38 740l-14.26 4.63v-9.26z" stroke="#3a414a" fill="#3a414a"/><path d="M800 686a6 6 0 0 1 6-6h228a6 6 0 0 1 6 6v48a6 6 0 0 1-6 6H806a6 6 0 0 1-6-6z" fill="none"/><use xlink:href="#d" transform="matrix(1,0,0,1,800,680) translate(0 38.083767361111114)"/><use xlink:href="#e" transform="matrix(1,0,0,1,800,680) translate(22.22222222222222 38.083767361111114)"/><use xlink:href="#f" transform="matrix(1,0,0,1,800,680) translate(28.47222222222222 38.083767361111114)"/><use xlink:href="#g" transform="matrix(1,0,0,1,800,680) translate(103.13585069444446 38.083767361111114)"/><path d="M700 826a6 6 0 0 1 6-6h28a6 6 0 0 1 6 6v48a6 6 0 0 1-6 6h-28a6 6 0 0 1-6-6zM1140 906a6 6 0 0 1 6-6h28a6 6 0 0 1 6 6v48a6 6 0 0 1-6 6h-28a6 6 0 0 1-6-6z" stroke="#3a414a" stroke-width="2" fill="#fff"/><path d="M1200.5 960h803.12M1200.5 960h-.5" stroke="#3a414a" fill="none"/><path d="M2018.38 960l-14.26 4.63v-9.26z" stroke="#3a414a" fill="#3a414a"/><path d="M620 1039c0 7.55-8.95 13.67-20 13.67s-20-6.12-20-13.67 8.95-13.67 20-13.67 20 6.12 20 13.67z" stroke="#3a414a" stroke-width="2"/><path d="M1984 604c-13.26 0-24-10.75-24-24 0-10.6 6.5-19.55 16.58-22.83C1976 526 2016 520 2032 532c8-18 48-12 48 6 24-6 48 18 32 48 16 24 0 54-32 42-8 15.6-40 15.6-48 0-16 12-48 6-48-24z" stroke="#3a414a" stroke-width="2" fill="#fff"/><use xlink:href="#h" transform="matrix(1,0,0,1,1965,525) translate(15.351128472222229 62.77777777777778)"/><use xlink:href="#i" transform="matrix(1,0,0,1,1965,525) translate(96.15625 62.77777777777778)"/><path d="M2060 1021.5v2m0 4.03v4.03m0 4.02v4.02m0 4.03v4.02m0 4.02v4.02m0 4.02v4.02m0 4.02v4.02m0 4.03v4.03m0 4.02v4.03m0 4.02v4.02m0 4.02v4.03m0 4.02v4m0 4.03v4.03m0 4.02v4.02m0 4.03v4.02m0 4.02v4.02m0 4.02v4.02m0 4.02v4.02m0 4.03v4.03m0 4.02v4.03m0 4.02v4.02m0 4.02v4.03m0 4.02v2" stroke="#3a414a" fill="none"/><path d="M2060.47 1021.5h-.94v-.5h.94zM2060.47 1199h-.94v-.5h.94z" stroke="#3a414a" stroke-width=".05" fill="#3a414a"/><path d="M2060 1261.5v2.02m0 4.03v4.03m0 4.03v4.04m0 4.03v4.03m0 4.03v4.04m0 4.03v4.03m0 4.03v4.03m0 4.02v4.03m0 4.03v4.04m0 4.03v4.03m0 4.03v4.04m0 4.03v4.03m0 4.03v4.04m0 4.03v4.03m0 4.03v4.03m0 4.02v4.03m0 4.03v4.04m0 4.03v4.03m0 4.03v4.04m0 4.03v4.03m0 4.03v4.04m0 4.03v4.03m0 4.03v4.03m0 4.02v4.03m0 4.03v4.04m0 4.03v4.03m0 4.03v4.04m0 4.03v4.03m0 4.03v4.04m0 4.03v4.03m0 4.03v4.03m0 4.02v4.03m0 4.03v2.02" stroke="#3a414a" fill="none"/><path d="M2060.47 1261.5h-.94v-.5h.94z" stroke="#3a414a" stroke-width=".05" fill="#3a414a"/><path d="M2060 1519.5v.5M2060 660.5v2m0 4.04v4.03m0 4.02v4.02m0 4.03v4.03m0 4.02v4.03m0 4.03v4.02m0 4.03v4.04m0 4.02v4.03m0 4.02v4.03m0 4.02V735m0 4.03v4.02m0 4.03v4.03m0 4.03v4.03m0 4.03v4.02m0 4.02v4.03m0 4.03v4.02m0 4.03v4.03m0 4.02v4.03m0 4.03v4.03m0 4v4.04m0 4.03v4.02m0 4.02v4.03m0 4.03v4.02m0 4.03v4.03m0 4.02v4.03m0 4.04v4.02m0 4.03v4.02m0 4.03v4.02m0 4.03v4.03m0 4.02v4.03m0 4.03v4.03m0 4.03v4.03m0 4.02v4.02m0 4.03v4.03m0 4.02v4.03m0 4.03v4.02m0 4.03v4.03m0 4.03v2M2060 660.5v-.5" stroke="#3a414a" fill="none"/><path d="M2060.47 959h-.94v-.5h.94z" stroke="#3a414a" stroke-width=".05" fill="#3a414a"/><path d="M1079.5 800h-2m-3.98 0h-4m-3.98 0h-4m-3.98 0h-3.98m-4 0h-3.98m-4 0h-3.98m-4 0h-3.97m-4 0h-3.98m-4 0h-3.98m-4 0h-4m-3.97 0h-4m-3.98 0h-4m-3.98 0h-4m-3.97 0h-4m-3.98 0h-4m-3.98 0h-4m-3.97 0h-4m-3.98 0h-4m-4 0h-3.98m-3.98 0h-4m-3.98 0h-4m-3.98 0h-4m-3.97 0h-3.98m-4 0h-3.98m-4 0h-3.98m-3.98 0h-4m-3.98 0h-4m-3.98 0h-4m-3.98 0h-3.98m-4 0h-3.98m-4 0h-3.98m-4 0h-3.97m-4 0h-3.98m-4 0h-3.98m-4 0h-3.97m-4 0h-3.98m-4 0h-3.98m-4 0h-3.97m-4 0h-2M1079.5 800h.5" stroke="#3a414a" fill="none"/><path d="M761.62 800l14.26-4.63v9.26z" stroke="#3a414a" fill="#3a414a"/><path d="M820 806a6 6 0 0 1 6-6h228a6 6 0 0 1 6 6v48a6 6 0 0 1-6 6H826a6 6 0 0 1-6-6z" fill="none"/><use xlink:href="#j" transform="matrix(1,0,0,1,820,800) translate(0.018446180555571345 38.083767361111114)"/><use xlink:href="#k" transform="matrix(1,0,0,1,820,800) translate(26.222873263888903 38.083767361111114)"/><use xlink:href="#l" transform="matrix(1,0,0,1,820,800) translate(108.330078125 38.083767361111114)"/><use xlink:href="#m" transform="matrix(1,0,0,1,820,800) translate(189.13519965277777 38.083767361111114)"/><path d="M783.2 881h300.4" stroke="#3a414a" fill="none"/><path stroke="#3a414a" stroke-width=".05" fill="#3a414a"/><path d="M1098.38 881l-14.27 4.63.02-9.26z" stroke="#3a414a" fill="#3a414a"/><path d="M780 886a6 6 0 0 1 6-6h228a6 6 0 0 1 6 6v48a6 6 0 0 1-6 6H786a6 6 0 0 1-6-6z" fill="none"/><use xlink:href="#n" transform="matrix(1,0,0,1,780,880) translate(74.92078993055556 38.083767361111114)"/><use xlink:href="#o" transform="matrix(1,0,0,1,780,880) translate(100.79969618055556 38.083767361111114)"/><use xlink:href="#p" transform="matrix(1,0,0,1,780,880) translate(146.56792534722223 38.083767361111114)"/><path d="M1220 906a6 6 0 0 1 6-6h228a6 6 0 0 1 6 6v48a6 6 0 0 1-6 6h-228a6 6 0 0 1-6-6z" fill="none"/><use xlink:href="#q" transform="matrix(1,0,0,1,1220,900) translate(14.4552951388889 38.083767361111114)"/><use xlink:href="#r" transform="matrix(1,0,0,1,1220,900) translate(40.71397569444446 38.083767361111114)"/><use xlink:href="#s" transform="matrix(1,0,0,1,1220,900) translate(133.80208333333331 38.083767361111114)"/><use xlink:href="#t" transform="matrix(1,0,0,1,1220,900) translate(160.4296875 38.083767361111114)"/><path d="M2019.5 1020h-2m-4.02 0h-4m-4.02 0h-4m-4.02 0h-4m-4.02 0h-4m-4.02 0h-4m-4.02 0h-4m-4.02 0h-4m-4.02 0h-4m-4.02 0h-4m-4.02 0h-4m-4.02 0h-4m-4.02 0h-4m-4.02 0h-4m-4.02 0h-4m-4.02 0h-4m-4.02 0h-4m-4.02 0h-4m-4.02 0h-4m-4.02 0h-4m-4.02 0h-4m-4.02 0h-4m-4.02 0h-4m-4.02 0h-4m-4.02 0h-4m-4.02 0h-4m-4.02 0h-4m-4.02 0h-4m-4.02 0h-4m-4.02 0h-4m-4.02 0h-4m-4.02 0h-4m-4.02 0h-4m-4.02 0h-4m-4.02 0h-4m-4.02 0h-4m-4.02 0h-4m-4.02 0h-4m-4.02 0h-4m-4.02 0h-4m-4.02 0h-4m-4.02 0h-4m-4.02 0h-4m-4.02 0h-4m-4.02 0h-4m-4.02 0h-4m-4.02 0h-4m-4.02 0h-4m-4.02 0h-4m-4.02 0h-4m-4.02 0h-4m-4.02 0h-4m-4.02 0h-4m-4.02 0h-4m-4.02 0h-4m-4.02 0h-4m-4.02 0h-4m-4.02 0h-4m-4.02 0h-4m-4.02 0h-4m-4.02 0h-4m-4.02 0h-4m-4.02 0h-4m-4.02 0h-4m-4.02 0h-4m-4.02 0h-4m-4.02 0h-4m-4.02 0h-4m-4.02 0h-4m-4.02 0h-4m-4.02 0h-4m-4.02 0h-4m-4.02 0h-4m-4.02 0h-4m-4.02 0h-4m-4.02 0h-4m-4.02 0h-4m-4.02 0h-4m-4.02 0h-4m-4.02 0h-4m-4.02 0h-4m-4.02 0h-4m-4.02 0h-4m-4.02 0h-4m-4.02 0h-4m-4.02 0h-4m-4.02 0h-4m-4.02 0h-4m-4.02 0h-4m-4.02 0h-4m-4.02 0h-4m-4.02 0h-4m-4.03 0h-4m-4.02 0h-4m-4.02 0h-4m-4 0h-4m-4.02 0h-4m-4.02 0h-4m-4.02 0h-4m-4.02 0h-4m-4.03 0h-4.02m-4 0h-4.02m-4 0h-4.02m-4 0h-4.02m-4 0h-4.02m-4 0h-4.02m-4 0h-4.02m-4 0h-4.02m-4 0h-4.02m-4 0h-4.02m-4 0h-4.02m-4 0h-4.02m-4 0h-4.02m-4 0h-4.02m-4 0h-4.02m-4 0h-4.02m-4 0h-4.02m-4 0h-4.02m-4 0h-4.02m-4 0h-4.02m-4 0h-4.02m-4 0h-4.02m-4 0h-4.02m-4 0H1031m-4 0H1023m-4 0h-4.02m-4 0h-4.02m-4 0h-4.02m-4 0h-4.02m-4 0h-4.02m-4 0h-4.02m-4 0h-4.02m-4 0h-4.02m-4 0h-4.02m-4 0h-4.02m-4 0h-4.02m-4 0h-4.02m-4 0h-4.02m-4 0h-4.02m-4 0h-4.02m-4 0h-4.02m-4 0h-4.02m-4 0h-4.02m-4 0h-4.02m-4 0h-4.02m-4 0h-4.02m-4 0h-4.02m-4 0h-4.02m-4 0h-4.02m-4 0h-4.02m-4 0h-4.02m-4 0h-4.02m-4 0h-4.02m-4 0h-4.02m-4 0h-4.02m-4 0h-2.02M2019.5 1020h.5" stroke="#3a414a" fill="none"/><path d="M761.62 1020l14.26-4.63v9.26z" stroke="#3a414a" fill="#3a414a"/><path d="M2040 966a6 6 0 0 1 6-6h28a6 6 0 0 1 6 6v48a6 6 0 0 1-6 6h-28a6 6 0 0 1-6-6zM700 1046a6 6 0 0 1 6-6h28a6 6 0 0 1 6 6v48a6 6 0 0 1-6 6h-28a6 6 0 0 1-6-6z" stroke="#3a414a" stroke-width="2" fill="#fff"/><path d="M1700 1031.33a6 6 0 0 1 6-6h288a6 6 0 0 1 6 6v48a6 6 0 0 1-6 6h-288a6 6 0 0 1-6-6z" fill="none"/><use xlink:href="#u" transform="matrix(1,0,0,1,1700,1025.333383333327) translate(34.95008680555554 24.639756944444443)"/><use xlink:href="#v" transform="matrix(1,0,0,1,1700,1025.333383333327) translate(60.51432291666666 24.639756944444443)"/><use xlink:href="#w" transform="matrix(1,0,0,1,1700,1025.333383333327) translate(143.54383680555554 24.639756944444443)"/><use xlink:href="#x" transform="matrix(1,0,0,1,1700,1025.333383333327) translate(225.83550347222223 24.639756944444443)"/><use xlink:href="#y" transform="matrix(1,0,0,1,1700,1025.333383333327) translate(18.836805555555543 51.52777777777778)"/><use xlink:href="#z" transform="matrix(1,0,0,1,1700,1025.333383333327) translate(100.35807291666664 51.52777777777778)"/><use xlink:href="#A" transform="matrix(1,0,0,1,1700,1025.333383333327) translate(157.45442708333331 51.52777777777778)"/><use xlink:href="#B" transform="matrix(1,0,0,1,1700,1025.333383333327) translate(185.41666666666666 51.52777777777778)"/><path d="M719.5 1039h-82.12" stroke="#3a414a" fill="none"/><path d="M723 1039h-3.5v-.47h3.5z" stroke="#3a414a" stroke-width=".05" fill="#3a414a"/><path d="M622.62 1039l14.26-4.63v9.27z" stroke="#3a414a" fill="#3a414a"/><path d="M560 966a6 6 0 0 1 6-6h148a6 6 0 0 1 6 6v48a6 6 0 0 1-6 6H566a6 6 0 0 1-6-6z" fill="none"/><use xlink:href="#C" transform="matrix(1,0,0,1,560,960) translate(34.54101562500001 24.639756944444443)"/><use xlink:href="#D" transform="matrix(1,0,0,1,560,960) translate(60.22460937500001 24.639756944444443)"/><use xlink:href="#E" transform="matrix(1,0,0,1,560,960) translate(42.858072916666664 51.52777777777778)"/><path d="M780.5 1120h723.12M780.5 1120h-.5" stroke="#3a414a" fill="none"/><path d="M1518.38 1120l-14.26 4.63v-9.27z" stroke="#3a414a" fill="#3a414a"/><path d="M760 1071.57a6 6 0 0 1 6-6h228a6 6 0 0 1 6 6v48a6 6 0 0 1-6 6H766a6 6 0 0 1-6-6z" fill="none"/><use xlink:href="#F" transform="matrix(1,0,0,1,760,1065.5679065161362) translate(17.90581597222223 38.083767361111114)"/><use xlink:href="#G" transform="matrix(1,0,0,1,760,1065.5679065161362) translate(40.355902777777786 38.083767361111114)"/><use xlink:href="#E" transform="matrix(1,0,0,1,760,1065.5679065161362) translate(147.81032986111111 38.083767361111114)"/><path d="M1580 1131.57a6 6 0 0 1 6-6h28a6 6 0 0 1 6 6v48a6 6 0 0 1-6 6h-28a6 6 0 0 1-6-6z" stroke="#3a414a" stroke-width="2" fill="#fff"/><path d="M1660 1126a6 6 0 0 1 6-6h228a6 6 0 0 1 6 6v48a6 6 0 0 1-6 6h-228a6 6 0 0 1-6-6z" fill="none"/><use xlink:href="#H" transform="matrix(1,0,0,1,1660,1120) translate(1.2337239583333428 24.639756944444443)"/><use xlink:href="#I" transform="matrix(1,0,0,1,1660,1120) translate(27.134331597222232 24.639756944444443)"/><use xlink:href="#J" transform="matrix(1,0,0,1,1660,1120) translate(119.01801215277777 24.639756944444443)"/><use xlink:href="#x" transform="matrix(1,0,0,1,1660,1120) translate(199.55186631944443 24.639756944444443)"/><use xlink:href="#K" transform="matrix(1,0,0,1,1660,1120) translate(44.43033854166666 51.52777777777778)"/><use xlink:href="#L" transform="matrix(1,0,0,1,1660,1120) translate(125.68033854166666 51.52777777777778)"/><path d="M1660.5 1186.57h323.12M1660.5 1186.57h-.5" stroke="#3a414a" fill="none"/><path d="M1998.38 1186.57l-14.26 4.63v-9.27z" stroke="#3a414a" fill="#3a414a"/><path d="M2040 1206a6 6 0 0 1 6-6h28a6 6 0 0 1 6 6v48a6 6 0 0 1-6 6h-28a6 6 0 0 1-6-6z" stroke="#3a414a" stroke-width="2" fill="#fff"/><path d="M2000 1260.5v.08l-.02.07-.03.08-.05.06-.05.05-.06.05-.07.04-.08.03-.07.02h-2.06m-3.95 0h-3.95m-3.95 0h-3.96m-3.94 0h-3.95m-3.94 0h-3.96m-3.95 0H1958m-3.95 0h-3.96m-3.96 0h-3.95m-3.97 0h-3.95m-3.95 0h-3.95m-3.96 0h-3.95m-3.95 0h-3.95m-3.96 0h-3.94m-3.95 0h-3.94m-3.96 0h-3.95m-3.95 0h-3.96m-3.95 0h-3.96m-3.95 0h-3.97m-3.95 0h-3.95m-3.95 0h-3.96m-3.95 0h-3.95m-3.95 0h-3.96m-3.94 0h-3.95m-3.94 0h-3.96m-3.95 0h-3.95m-3.95 0h-3.96m-3.96 0H1792m-3.97 0h-3.95m-3.95 0h-3.95m-3.96 0h-3.95m-3.95 0h-3.95m-3.96 0h-3.94m-3.95 0h-3.94m-3.96 0h-3.95m-3.95 0h-3.96m-3.95 0h-3.96m-3.95 0h-3.97m-3.95 0h-3.95m-3.95 0h-3.96m-3.95 0h-3.95m-3.95 0h-3.96m-3.94 0h-1.98M2000 1260.5v-.5" stroke="#3a414a" fill="none"/><path d="M1661.62 1260.1l14.53-3.7-.6 9.26z" stroke="#3a414a" fill="#3a414a"/><path d="M1700 1266a6 6 0 0 1 6-6h228a6 6 0 0 1 6 6v48a6 6 0 0 1-6 6h-228a6 6 0 0 1-6-6z" fill="none"/><g><use xlink:href="#M" transform="matrix(1,0,0,1,1700,1260) translate(29.765625 38.083767361111114)"/><use xlink:href="#N" transform="matrix(1,0,0,1,1700,1260) translate(64.91102430555556 38.083767361111114)"/><use xlink:href="#O" transform="matrix(1,0,0,1,1700,1260) translate(140.34505208333331 38.083767361111114)"/></g><path d="M1580 1266a6 6 0 0 1 6-6h28a6 6 0 0 1 6 6v48a6 6 0 0 1-6 6h-28a6 6 0 0 1-6-6zM1580 1386a6 6 0 0 1 6-6h28a6 6 0 0 1 6 6v48a6 6 0 0 1-6 6h-28a6 6 0 0 1-6-6z" stroke="#3a414a" stroke-width="2" fill="#fff"/><path d="M1640 1320.5a.5.5 0 0 0 .5.5h4.5a5 5 0 0 1 5 5v49.62a6 6 0 0 1-6 6h-8.18M1640 1320.5v-.5" stroke="#3a414a" fill="none"/><path d="M1621.06 1381.62l14.26-4.64v9.27z" stroke="#3a414a" fill="#3a414a"/><path d="M1660 1331.57a6 6 0 0 1 6-6h128a6 6 0 0 1 6 6V1374a6 6 0 0 1-6 6h-128a6 6 0 0 1-6-6z" fill="none"/><g><use xlink:href="#P" transform="matrix(1,0,0,1,1660,1325.5679065161362) translate(19.69075520833333 22.139756944444443)"/><use xlink:href="#Q" transform="matrix(1,0,0,1,1660,1325.5679065161362) translate(50.41992187499999 22.139756944444443)"/><use xlink:href="#R" transform="matrix(1,0,0,1,1660,1325.5679065161362) translate(30.009765625000007 49.02777777777778)"/></g><path d="M700 1446a6 6 0 0 1 6-6h28a6 6 0 0 1 6 6v48a6 6 0 0 1-6 6h-28a6 6 0 0 1-6-6z" stroke="#3a414a" stroke-width="2" fill="#fff"/><path d="M1539.5 1441h-2m-4 0h-4m-3.98 0h-4m-4 0h-4m-3.98 0h-4m-4 0h-4m-3.98 0h-4m-4 0h-4m-4 0h-3.98m-4 0h-4m-4 0h-3.98m-4 0h-4m-4 0h-3.98m-4 0h-4m-4 0h-3.98m-4 0h-4m-4 0h-4m-3.98 0h-4m-4 0h-4m-3.98 0h-4m-4 0h-4m-3.98 0h-4m-4 0h-4m-3.98 0h-4m-4 0h-4m-4 0h-3.98m-4 0h-4m-4 0h-3.98m-4 0h-4m-4 0h-3.98m-4 0h-4m-4 0h-3.98m-4 0h-4m-4 0h-3.98m-4 0h-4m-4 0h-3.98m-4 0h-4m-4 0h-4m-3.98 0h-4m-4 0h-4m-3.98 0h-4m-4 0h-4m-3.98 0h-4m-4 0h-4m-3.98 0h-4m-4 0h-4m-4 0h-3.98m-4 0h-4m-4 0h-3.98m-4 0h-4m-4 0H1138m-4 0h-4m-4 0H1122m-4 0h-4m-4 0h-3.98m-4 0h-4m-4 0h-3.98m-4 0h-4m-4 0h-4m-3.98 0h-4m-4 0h-4m-3.98 0h-4m-4 0h-4m-3.98 0h-4m-4 0h-4m-3.98 0h-4m-4 0h-4m-4 0h-3.98m-4 0h-4m-4 0h-3.98m-4 0h-4m-4 0h-3.98m-4 0h-4m-4 0h-3.98m-4 0h-4m-4 0h-4m-3.98 0h-4m-4 0h-4m-3.98 0h-4m-4 0h-4m-3.98 0h-4m-4 0h-4m-3.98 0h-4m-4 0h-4m-3.98 0h-4m-4 0h-4m-3.98 0h-4m-4 0h-4m-4 0h-3.98m-4 0h-4m-4 0h-3.98m-4 0h-4m-4 0h-3.98m-4 0h-2M1539.5 1441h.5" stroke="#3a414a" fill="none"/><path d="M781.62 1441l14.26-4.63v9.27z" stroke="#3a414a" fill="#3a414a"/><path d="M760 1386a6 6 0 0 1 6-6h208a6 6 0 0 1 6 6v48a6 6 0 0 1-6 6H766a6 6 0 0 1-6-6z" fill="none"/><g><use xlink:href="#S" transform="matrix(1,0,0,1,760,1380) translate(35.64561631944446 24.639756944444443)"/><use xlink:href="#T" transform="matrix(1,0,0,1,760,1380) translate(70.88867187500001 24.639756944444443)"/><use xlink:href="#U" transform="matrix(1,0,0,1,760,1380) translate(163.97677951388889 24.639756944444443)"/><use xlink:href="#V" transform="matrix(1,0,0,1,760,1380) translate(53.90733506944445 51.52777777777778)"/></g><path d="M2180 1171.9c0 7.55-8.95 13.67-20 13.67s-20-6.12-20-13.67 8.95-13.67 20-13.67 20 6.12 20 13.67z" stroke="#3a414a" stroke-width="2"/><path d="M2060 1199.5a.5.5 0 0 0 .5.5h64.12" stroke="#3a414a" fill="none"/><path d="M2060.47 1199.5h-.94v-.5h.94z" stroke="#3a414a" stroke-width=".05" fill="#3a414a"/><path d="M2138.4 1199.1l-13.95 5.56-.6-9.26z" stroke="#3a414a" fill="#3a414a"/><path d="M2080 1104.23a6 6 0 0 1 6-6h228a6 6 0 0 1 6 6v48a6 6 0 0 1-6 6h-228a6 6 0 0 1-6-6z" fill="none"/><g><use xlink:href="#W" transform="matrix(1,0,0,1,2080,1098.2345731828032) translate(35.185546875 24.639756944444443)"/><use xlink:href="#X" transform="matrix(1,0,0,1,2080,1098.2345731828032) translate(61.05360243055556 24.639756944444443)"/><use xlink:href="#Y" transform="matrix(1,0,0,1,2080,1098.2345731828032) translate(119.06141493055556 24.639756944444443)"/><use xlink:href="#O" transform="matrix(1,0,0,1,2080,1098.2345731828032) translate(85.05533854166666 51.52777777777778)"/></g><defs><path d="M763 24c-353 0-583-224-583-531v-983h190v968c0 214 149 370 393 370 243 0 391-156 391-370v-968h190v983c0 307-230 531-581 531" id="Z"/><path d="M538 24C308 24 148-78 108-271l171-41c32 123 123 178 257 178 156 0 256-77 256-169 0-77-54-128-164-154l-186-44c-203-48-300-148-300-305 0-192 176-326 414-326 230 0 351 112 402 269l-163 42c-31-80-94-158-238-158-133 0-233 69-233 162 0 83 57 129 188 160l169 40c203 48 298 149 298 302 0 196-179 339-441 339" id="aa"/><path d="M628 24c-324 0-524-230-524-574 0-343 198-582 503-582 237 0 487 146 487 559v75H286c9 234 145 362 343 362 132 0 231-58 273-172l174 48C1024-91 857 24 628 24zM287-650h624c-17-190-120-322-304-322-192 0-309 151-320 322" id="ab"/><path d="M158 0v-1118h174v172h12c41-113 157-188 290-188 26 0 70 2 91 3v181c-11-2-60-10-108-10-161 0-279 109-279 260V0H158" id="ac"/><g id="a"><use transform="matrix(0.010850694444444444,0,0,0.010850694444444444,0,0)" xlink:href="#Z"/><use transform="matrix(0.010850694444444444,0,0,0.010850694444444444,16.536458333333332,0)" xlink:href="#aa"/><use transform="matrix(0.010850694444444444,0,0,0.010850694444444444,28.266059027777775,0)" xlink:href="#ab"/><use transform="matrix(0.010850694444444444,0,0,0.010850694444444444,41.22178819444444,0)" xlink:href="#ac"/></g><path d="M783 20c-382 0-661-292-661-764 0-473 279-766 661-766 302 0 548 182 601 489h-190c-42-204-217-313-411-313-268 0-476 208-476 590 0 381 209 588 476 588 195 0 369-110 411-313h190c-52 303-296 489-601 489" id="ad"/><path d="M338-1490V0H158v-1490h180" id="ae"/><path d="M158 0v-1118h180V0H158zm91-1301c-68 0-125-53-125-119s57-119 125-119c69 0 126 53 126 119s-57 119-126 119" id="af"/><path d="M338-670V0H158v-1118h173l1 207c72-158 192-221 342-221 226 0 378 139 378 422V0H872v-695c0-172-96-275-252-275-161 0-282 109-282 300" id="ag"/><path d="M598-1118v154H368v674c0 100 37 144 132 144 23 0 62-6 92-12L629-6c-37 13-88 20-134 20-193 0-307-107-307-290v-688H20v-154h168v-266h180v266h230" id="ah"/><g id="b"><use transform="matrix(0.010850694444444444,0,0,0.010850694444444444,0,0)" xlink:href="#ad"/><use transform="matrix(0.010850694444444444,0,0,0.010850694444444444,16.23263888888889,0)" xlink:href="#ae"/><use transform="matrix(0.010850694444444444,0,0,0.010850694444444444,21.614583333333336,0)" xlink:href="#af"/><use transform="matrix(0.010850694444444444,0,0,0.010850694444444444,26.99652777777778,0)" xlink:href="#ab"/><use transform="matrix(0.010850694444444444,0,0,0.010850694444444444,39.95225694444444,0)" xlink:href="#ag"/><use transform="matrix(0.010850694444444444,0,0,0.010850694444444444,53.08159722222222,0)" xlink:href="#ah"/></g><path d="M657 26c-323 0-524-166-541-416h195c15 169 171 246 346 246 202 0 356-106 356-265 5-203-294-238-475-293-239-73-380-191-380-389 0-252 224-419 512-419 294 0 499 171 508 396H992c-17-145-151-228-328-228-193 0-321 102-321 242 0 156 175 211 284 241l149 41c160 44 422 134 422 412 0 244-197 432-541 432" id="ai"/><path d="M481 0L54-1118h197c107 314 236 620 325 951 87-331 217-637 324-951h197L670 0H481" id="aj"/><g id="c"><use transform="matrix(0.010850694444444444,0,0,0.010850694444444444,0,0)" xlink:href="#ai"/><use transform="matrix(0.010850694444444444,0,0,0.010850694444444444,14.2578125,0)" xlink:href="#ab"/><use transform="matrix(0.010850694444444444,0,0,0.010850694444444444,27.213541666666664,0)" xlink:href="#ac"/><use transform="matrix(0.010850694444444444,0,0,0.010850694444444444,35.92664930555555,0)" xlink:href="#aj"/><use transform="matrix(0.010850694444444444,0,0,0.010850694444444444,47.98177083333333,0)" xlink:href="#ab"/><use transform="matrix(0.010850694444444444,0,0,0.010850694444444444,60.937499999999986,0)" xlink:href="#ac"/></g><path d="M653-1490V0H466v-1314h-10L96-1047v-204l324-239h233" id="ak"/><path d="M295 13c-75 0-135-60-135-135s60-135 135-135 135 60 135 135S370 13 295 13" id="al"/><g id="d"><use transform="matrix(0.010850694444444444,0,0,0.010850694444444444,0,0)" xlink:href="#ak"/><use transform="matrix(0.010850694444444444,0,0,0.010850694444444444,9.038628472222221,0)" xlink:href="#al"/></g><path d="M784 20c-382 0-662-292-662-764 0-473 280-766 662-766s660 293 660 766c0 472-278 764-660 764zm0-176c266 0 475-207 475-588 0-383-209-590-475-590-268 0-477 208-477 590 0 380 209 588 477 588" id="am"/><path d="M158 418v-1536h174v179h20c37-59 106-193 324-193 279 0 474 222 474 576 0 356-194 580-473 580-213 0-288-135-325-197h-14v591H158zm492-555c209 0 317-186 317-421 0-232-105-413-317-413-206 0-314 166-314 413 0 249 111 421 314 421" id="an"/><g id="f"><use transform="matrix(0.010850694444444444,0,0,0.010850694444444444,0,0)" xlink:href="#am"/><use transform="matrix(0.010850694444444444,0,0,0.010850694444444444,16.9921875,0)" xlink:href="#an"/><use transform="matrix(0.010850694444444444,0,0,0.010850694444444444,30.598958333333332,0)" xlink:href="#ab"/><use transform="matrix(0.010850694444444444,0,0,0.010850694444444444,43.5546875,0)" xlink:href="#ag"/><use transform="matrix(0.010850694444444444,0,0,0.010850694444444444,56.68402777777778,0)" xlink:href="#aa"/></g><path d="M471 26C259 26 90-98 90-318c0-256 228-303 435-329 202-27 287-16 287-108 0-139-79-219-234-219-161 0-248 86-283 164l-173-57c86-203 278-265 451-265 150 0 419 46 419 395V0H815v-152h-12C765-73 660 26 471 26zm31-159c199 0 310-134 310-271v-155c-30 35-226 55-295 64-131 17-246 59-246 186 0 116 97 176 231 176" id="ao"/><path d="M613 24c-304 0-509-231-509-576 0-350 205-580 509-580 216 0 392 114 453 309l-173 49c-33-115-133-197-280-197-223 0-326 196-326 419 0 220 103 415 326 415 150 0 252-85 285-206l172 49C1010-95 832 24 613 24" id="ap"/><path d="M613 24c-304 0-509-231-509-576 0-350 205-580 509-580 305 0 511 230 511 580 0 345-206 576-511 576zm0-161c226 0 329-195 329-415 0-222-103-419-329-419-223 0-326 196-326 419 0 220 103 415 326 415" id="aq"/><g id="g"><use transform="matrix(0.010850694444444444,0,0,0.010850694444444444,0,0)" xlink:href="#ao"/><use transform="matrix(0.010850694444444444,0,0,0.010850694444444444,12.47829861111111,0)" xlink:href="#an"/><use transform="matrix(0.010850694444444444,0,0,0.010850694444444444,26.085069444444443,0)" xlink:href="#an"/><use transform="matrix(0.010850694444444444,0,0,0.010850694444444444,39.69184027777777,0)" xlink:href="#ae"/><use transform="matrix(0.010850694444444444,0,0,0.010850694444444444,45.07378472222221,0)" xlink:href="#af"/><use transform="matrix(0.010850694444444444,0,0,0.010850694444444444,50.45572916666666,0)" xlink:href="#ap"/><use transform="matrix(0.010850694444444444,0,0,0.010850694444444444,63.36805555555554,0)" xlink:href="#ao"/><use transform="matrix(0.010850694444444444,0,0,0.010850694444444444,75.84635416666666,0)" xlink:href="#ah"/><use transform="matrix(0.010850694444444444,0,0,0.010850694444444444,83.11631944444443,0)" xlink:href="#af"/><use transform="matrix(0.010850694444444444,0,0,0.010850694444444444,88.49826388888887,0)" xlink:href="#aq"/><use transform="matrix(0.010850694444444444,0,0,0.010850694444444444,101.82291666666664,0)" xlink:href="#ag"/></g><path d="M678-1118v154H420V0H240v-964H20v-154h220v-149c0-194 155-293 318-293 85 0 141 18 168 30l-50 154c-19-6-47-17-97-17-111 0-159 58-159 166v109h258" id="ar"/><path d="M140 405l46-156c120 36 205 19 263-150l32-93L54-1118h197c107 313 237 620 324 950 87-331 219-637 326-950h196L606 167c-68 178-176 259-334 259-64 0-113-12-132-21" id="as"/><g id="h"><use transform="matrix(0.010850694444444444,0,0,0.010850694444444444,0,0)" xlink:href="#ai"/><use transform="matrix(0.010850694444444444,0,0,0.010850694444444444,14.2578125,0)" xlink:href="#an"/><use transform="matrix(0.010850694444444444,0,0,0.010850694444444444,27.864583333333332,0)" xlink:href="#aq"/><use transform="matrix(0.010850694444444444,0,0,0.010850694444444444,41.18923611111111,0)" xlink:href="#ah"/><use transform="matrix(0.010850694444444444,0,0,0.010850694444444444,48.459201388888886,0)" xlink:href="#af"/><use transform="matrix(0.010850694444444444,0,0,0.010850694444444444,53.84114583333333,0)" xlink:href="#ar"/><use transform="matrix(0.010850694444444444,0,0,0.010850694444444444,62.06597222222221,0)" xlink:href="#as"/></g><path d="M52 0l541-1490h220L1361 0h-200l-149-416H398L254 0H52zm404-582h497c-103-290-145-390-251-756-108 377-145 460-246 756" id="at"/><path d="M180 0v-1490h510c348 0 508 209 508 474 0 266-160 477-507 477H370V0H180zm190-706h312c236 0 327-133 327-310 0-176-91-307-329-307H370v617" id="au"/><path d="M370-1490V0H180v-1490h190" id="av"/><g id="i"><use transform="matrix(0.010850694444444444,0,0,0.010850694444444444,0,0)" xlink:href="#at"/><use transform="matrix(0.010850694444444444,0,0,0.010850694444444444,15.33203125,0)" xlink:href="#au"/><use transform="matrix(0.010850694444444444,0,0,0.010850694444444444,29.524739583333332,0)" xlink:href="#av"/></g><path d="M154 0v-137l495-537c165-179 249-281 249-418 0-156-121-253-280-253-170 0-278 110-278 278H158c0-264 200-443 465-443 266 0 455 183 455 416 0 161-73 288-336 568L416-179v12h687V0H154" id="aw"/><g id="j"><use transform="matrix(0.010850694444444444,0,0,0.010850694444444444,0,0)" xlink:href="#aw"/><use transform="matrix(0.010850694444444444,0,0,0.010850694444444444,13.55251736111111,0)" xlink:href="#al"/></g><path d="M158 0v-1118h175l1 205c55-151 181-225 313-225 147 0 245 90 285 228 53-141 190-228 352-228 194 0 352 125 352 384V0h-181v-749c0-161-105-225-225-225-151 0-243 103-243 244V0H807v-767c0-124-93-207-219-207-131 0-250 92-250 270V0H158" id="ax"/><g id="k"><use transform="matrix(0.010850694444444444,0,0,0.010850694444444444,0,0)" xlink:href="#au"/><use transform="matrix(0.010850694444444444,0,0,0.010850694444444444,14.192708333333332,0)" xlink:href="#ac"/><use transform="matrix(0.010850694444444444,0,0,0.010850694444444444,22.189670138888886,0)" xlink:href="#aq"/><use transform="matrix(0.010850694444444444,0,0,0.010850694444444444,35.514322916666664,0)" xlink:href="#ax"/><use transform="matrix(0.010850694444444444,0,0,0.010850694444444444,54.98046875,0)" xlink:href="#an"/><use transform="matrix(0.010850694444444444,0,0,0.010850694444444444,68.58723958333333,0)" xlink:href="#ah"/></g><g id="l"><use transform="matrix(0.010850694444444444,0,0,0.010850694444444444,0,0)" xlink:href="#ai"/><use transform="matrix(0.010850694444444444,0,0,0.010850694444444444,14.2578125,0)" xlink:href="#an"/><use transform="matrix(0.010850694444444444,0,0,0.010850694444444444,27.864583333333332,0)" xlink:href="#aq"/><use transform="matrix(0.010850694444444444,0,0,0.010850694444444444,41.18923611111111,0)" xlink:href="#ah"/><use transform="matrix(0.010850694444444444,0,0,0.010850694444444444,48.459201388888886,0)" xlink:href="#af"/><use transform="matrix(0.010850694444444444,0,0,0.010850694444444444,53.84114583333333,0)" xlink:href="#ar"/><use transform="matrix(0.010850694444444444,0,0,0.010850694444444444,62.06597222222221,0)" xlink:href="#as"/></g><path d="M611 442c-248 0-391-105-460-228l146-94c47 65 117 165 314 165 178 0 307-82 307-266v-224h-17C863-141 792-18 576-18c-268 0-472-195-472-546 0-346 197-568 476-568 216 0 288 133 326 193h17v-179h175V29c0 289-215 413-487 413zm-5-620c203 0 314-146 314-390 0-237-108-403-314-403-213 0-319 180-319 403 0 230 109 390 319 390" id="ay"/><g id="m"><use transform="matrix(0.010850694444444444,0,0,0.010850694444444444,0,0)" xlink:href="#ae"/><use transform="matrix(0.010850694444444444,0,0,0.010850694444444444,5.381944444444445,0)" xlink:href="#aq"/><use transform="matrix(0.010850694444444444,0,0,0.010850694444444444,18.70659722222222,0)" xlink:href="#ay"/><use transform="matrix(0.010850694444444444,0,0,0.010850694444444444,32.33506944444444,0)" xlink:href="#af"/><use transform="matrix(0.010850694444444444,0,0,0.010850694444444444,37.717013888888886,0)" xlink:href="#ag"/></g><path d="M635 20c-292 0-500-160-510-396h192c11 142 145 229 315 229 187 0 323-105 323-260 0-161-125-274-346-274H488v-165h121c174 0 294-100 294-254 0-148-104-245-266-245-152 0-291 85-297 230H157c8-234 222-395 484-395 278 0 448 188 448 400 0 168-95 291-247 336v12c190 31 301 169 301 357 0 244-216 425-508 425" id="az"/><g id="n"><use transform="matrix(0.010850694444444444,0,0,0.010850694444444444,0,0)" xlink:href="#az"/><use transform="matrix(0.010850694444444444,0,0,0.010850694444444444,13.226996527777777,0)" xlink:href="#al"/></g><path d="M180 0v-1490h190v1322h690V0H180" id="aA"/><g id="o"><use transform="matrix(0.010850694444444444,0,0,0.010850694444444444,0,0)" xlink:href="#aA"/><use transform="matrix(0.010850694444444444,0,0,0.010850694444444444,12.565104166666666,0)" xlink:href="#aq"/><use transform="matrix(0.010850694444444444,0,0,0.010850694444444444,25.889756944444443,0)" xlink:href="#ay"/></g><g id="p"><use transform="matrix(0.010850694444444444,0,0,0.010850694444444444,0,0)" xlink:href="#af"/><use transform="matrix(0.010850694444444444,0,0,0.010850694444444444,5.381944444444445,0)" xlink:href="#ag"/></g><path d="M120-303v-155l652-1032h231v1020h202v167h-202V0H821v-303H120zm702-167v-782h-12L323-482v12h499" id="aB"/><g id="q"><use transform="matrix(0.010850694444444444,0,0,0.010850694444444444,0,0)" xlink:href="#aB"/><use transform="matrix(0.010850694444444444,0,0,0.010850694444444444,13.606770833333332,0)" xlink:href="#al"/></g><path d="M180 0v-1490h510c348 0 508 194 508 460 0 198-88 351-276 417L1256 0h-220L726-579c-117 2-238 0-356 1V0H180zm190-747h312c235 0 327-108 327-283 0-177-92-293-329-293H370v576" id="aC"/><path d="M577 24c-279 0-473-224-473-580 0-354 195-576 474-576 218 0 287 134 324 193h14v-551h180V0H922v-173h-20C865-111 790 24 577 24zm27-161c203 0 314-172 314-421 0-247-108-413-314-413-212 0-317 181-317 413 0 235 108 421 317 421" id="aD"/><g id="r"><use transform="matrix(0.010850694444444444,0,0,0.010850694444444444,0,0)" xlink:href="#aC"/><use transform="matrix(0.010850694444444444,0,0,0.010850694444444444,13.975694444444445,0)" xlink:href="#ab"/><use transform="matrix(0.010850694444444444,0,0,0.010850694444444444,26.931423611111104,0)" xlink:href="#aD"/><use transform="matrix(0.010850694444444444,0,0,0.010850694444444444,40.53819444444444,0)" xlink:href="#af"/><use transform="matrix(0.010850694444444444,0,0,0.010850694444444444,45.920138888888886,0)" xlink:href="#ac"/><use transform="matrix(0.010850694444444444,0,0,0.010850694444444444,53.917100694444436,0)" xlink:href="#ab"/><use transform="matrix(0.010850694444444444,0,0,0.010850694444444444,66.8728298611111,0)" xlink:href="#ap"/><use transform="matrix(0.010850694444444444,0,0,0.010850694444444444,79.5681423611111,0)" xlink:href="#ah"/></g><g id="s"><use transform="matrix(0.010850694444444444,0,0,0.010850694444444444,0,0)" xlink:href="#ah"/><use transform="matrix(0.010850694444444444,0,0,0.010850694444444444,7.052951388888888,0)" xlink:href="#aq"/></g><path d="M537 14c-226 0-379-139-379-422v-710h180v695c0 172 97 275 253 275 160 0 281-109 281-300v-670h181V0H879v-209C806-46 684 14 537 14" id="aE"/><path d="M338-670V0H158v-1490h180v566c73-149 190-208 336-208 226 0 379 139 379 422V0H872v-695c0-172-96-275-252-275-161 0-282 109-282 300" id="aF"/><g id="t"><use transform="matrix(0.010850694444444444,0,0,0.010850694444444444,0,0)" xlink:href="#am"/><use transform="matrix(0.010850694444444444,0,0,0.010850694444444444,16.23263888888889,0)" xlink:href="#at"/><use transform="matrix(0.010850694444444444,0,0,0.010850694444444444,31.56467013888889,0)" xlink:href="#aE"/><use transform="matrix(0.010850694444444444,0,0,0.010850694444444444,44.70486111111111,0)" xlink:href="#ah"/><use transform="matrix(0.010850694444444444,0,0,0.010850694444444444,51.9748263888889,0)" xlink:href="#aF"/></g><path d="M626 20c-262 0-458-168-468-396h184c12 133 134 229 284 229 180 0 311-137 311-326 0-192-136-335-323-335-92 0-196 33-255 78l-178-22 88-738h784v167H429l-51 435h8c61-51 160-87 263-87 273 0 474 211 474 499 0 286-210 496-497 496" id="aG"/><g id="u"><use transform="matrix(0.010850694444444444,0,0,0.010850694444444444,0,0)" xlink:href="#aG"/><use transform="matrix(0.010850694444444444,0,0,0.010850694444444444,12.91232638888889,0)" xlink:href="#al"/></g><path d="M645 0H180v-1490h484c435 0 692 280 692 742 0 466-257 748-711 748zM370-168h263c363 0 539-218 539-580 0-358-176-574-521-574H370v1154" id="aH"/><g id="v"><use transform="matrix(0.010850694444444444,0,0,0.010850694444444444,0,0)" xlink:href="#aH"/><use transform="matrix(0.010850694444444444,0,0,0.010850694444444444,16.03732638888889,0)" xlink:href="#af"/><use transform="matrix(0.010850694444444444,0,0,0.010850694444444444,21.419270833333336,0)" xlink:href="#aa"/><use transform="matrix(0.010850694444444444,0,0,0.010850694444444444,33.14887152777778,0)" xlink:href="#an"/><use transform="matrix(0.010850694444444444,0,0,0.010850694444444444,46.75564236111111,0)" xlink:href="#ae"/><use transform="matrix(0.010850694444444444,0,0,0.010850694444444444,52.13758680555556,0)" xlink:href="#ao"/><use transform="matrix(0.010850694444444444,0,0,0.010850694444444444,64.29036458333333,0)" xlink:href="#as"/></g><g id="w"><use transform="matrix(0.010850694444444444,0,0,0.010850694444444444,0,0)" xlink:href="#aa"/><use transform="matrix(0.010850694444444444,0,0,0.010850694444444444,11.729600694444445,0)" xlink:href="#ap"/><use transform="matrix(0.010850694444444444,0,0,0.010850694444444444,24.424913194444443,0)" xlink:href="#aq"/><use transform="matrix(0.010850694444444444,0,0,0.010850694444444444,37.74956597222222,0)" xlink:href="#an"/><use transform="matrix(0.010850694444444444,0,0,0.010850694444444444,51.35633680555556,0)" xlink:href="#ab"/><use transform="matrix(0.010850694444444444,0,0,0.010850694444444444,64.31206597222223,0)" xlink:href="#aa"/></g><g id="x"><use transform="matrix(0.010850694444444444,0,0,0.010850694444444444,0,0)" xlink:href="#ao"/><use transform="matrix(0.010850694444444444,0,0,0.010850694444444444,12.47829861111111,0)" xlink:href="#ag"/><use transform="matrix(0.010850694444444444,0,0,0.010850694444444444,25.60763888888889,0)" xlink:href="#aD"/></g><g id="y"><use transform="matrix(0.010850694444444444,0,0,0.010850694444444444,0,0)" xlink:href="#an"/><use transform="matrix(0.010850694444444444,0,0,0.010850694444444444,13.606770833333332,0)" xlink:href="#ac"/><use transform="matrix(0.010850694444444444,0,0,0.010850694444444444,21.603732638888886,0)" xlink:href="#aq"/><use transform="matrix(0.010850694444444444,0,0,0.010850694444444444,34.928385416666664,0)" xlink:href="#ax"/><use transform="matrix(0.010850694444444444,0,0,0.010850694444444444,54.39453125,0)" xlink:href="#an"/><use transform="matrix(0.010850694444444444,0,0,0.010850694444444444,68.00130208333333,0)" xlink:href="#ah"/></g><g id="z"><use transform="matrix(0.010850694444444444,0,0,0.010850694444444444,0,0)" xlink:href="#ae"/><use transform="matrix(0.010850694444444444,0,0,0.010850694444444444,5.381944444444445,0)" xlink:href="#aq"/><use transform="matrix(0.010850694444444444,0,0,0.010850694444444444,18.70659722222222,0)" xlink:href="#ay"/><use transform="matrix(0.010850694444444444,0,0,0.010850694444444444,32.33506944444444,0)" xlink:href="#af"/><use transform="matrix(0.010850694444444444,0,0,0.010850694444444444,37.717013888888886,0)" xlink:href="#ag"/></g><path d="M218-607c0-325 108-727 258-974h175c-155 315-250 682-250 974 0 265 78 531 250 886H476C306-10 218-315 218-607" id="aI"/><g id="A"><use transform="matrix(0.010850694444444444,0,0,0.010850694444444444,0,0)" xlink:href="#aI"/><use transform="matrix(0.010850694444444444,0,0,0.010850694444444444,8.10546875,0)" xlink:href="#af"/><use transform="matrix(0.010850694444444444,0,0,0.010850694444444444,13.487413194444445,0)" xlink:href="#ar"/></g><path d="M1096 418H916v-591h-14C865-111 790 24 577 24c-279 0-473-224-473-580 0-354 195-576 474-576 218 0 287 134 324 193h20v-179h174V418zM604-137c203 0 314-172 314-421 0-247-108-413-314-413-212 0-317 181-317 413 0 235 108 421 317 421" id="aJ"/><path d="M96 279C273-86 346-350 346-607c0-292-95-659-250-974h175c150 246 258 650 258 974 0 297-91 602-258 886H96" id="aK"/><g id="B"><use transform="matrix(0.010850694444444444,0,0,0.010850694444444444,0,0)" xlink:href="#ac"/><use transform="matrix(0.010850694444444444,0,0,0.010850694444444444,7.996961805555555,0)" xlink:href="#ab"/><use transform="matrix(0.010850694444444444,0,0,0.010850694444444444,20.95269097222222,0)" xlink:href="#aJ"/><use transform="matrix(0.010850694444444444,0,0,0.010850694444444444,34.55946180555556,0)" xlink:href="#aE"/><use transform="matrix(0.010850694444444444,0,0,0.010850694444444444,47.69965277777778,0)" xlink:href="#af"/><use transform="matrix(0.010850694444444444,0,0,0.010850694444444444,53.08159722222222,0)" xlink:href="#ac"/><use transform="matrix(0.010850694444444444,0,0,0.010850694444444444,61.07855902777778,0)" xlink:href="#ab"/><use transform="matrix(0.010850694444444444,0,0,0.010850694444444444,74.03428819444444,0)" xlink:href="#aD"/><use transform="matrix(0.010850694444444444,0,0,0.010850694444444444,87.64105902777777,0)" xlink:href="#aK"/></g><path d="M646 20c-249 0-524-159-524-708 0-524 209-822 547-822 250 0 431 161 467 395H950c-33-129-126-227-281-227-229 0-367 208-367 566h12c80-124 212-198 367-198 255 0 467 205 467 493 0 278-198 501-502 501zm0-167c179 0 318-148 318-334 0-182-133-328-313-328-181 0-322 156-322 330 0 176 134 332 317 332" id="aL"/><g id="C"><use transform="matrix(0.010850694444444444,0,0,0.010850694444444444,0,0)" xlink:href="#aL"/><use transform="matrix(0.010850694444444444,0,0,0.010850694444444444,13.03168402777778,0)" xlink:href="#al"/></g><path d="M157-1118h181V80c1 225-123 350-364 338V252c126 9 184-48 183-172v-1198zm91-183c-68 0-125-53-125-119s57-119 125-119c69 0 126 53 126 119s-57 119-126 119" id="aM"/><g id="D"><use transform="matrix(0.010850694444444444,0,0,0.010850694444444444,0,0)" xlink:href="#aC"/><use transform="matrix(0.010850694444444444,0,0,0.010850694444444444,13.975694444444445,0)" xlink:href="#ab"/><use transform="matrix(0.010850694444444444,0,0,0.010850694444444444,26.931423611111104,0)" xlink:href="#aM"/><use transform="matrix(0.010850694444444444,0,0,0.010850694444444444,32.31336805555555,0)" xlink:href="#ab"/><use transform="matrix(0.010850694444444444,0,0,0.010850694444444444,45.26909722222221,0)" xlink:href="#ap"/><use transform="matrix(0.010850694444444444,0,0,0.010850694444444444,57.96440972222221,0)" xlink:href="#ah"/></g><g id="E"><use transform="matrix(0.010850694444444444,0,0,0.010850694444444444,0,0)" xlink:href="#ao"/><use transform="matrix(0.010850694444444444,0,0,0.010850694444444444,12.47829861111111,0)" xlink:href="#ap"/><use transform="matrix(0.010850694444444444,0,0,0.010850694444444444,25.17361111111111,0)" xlink:href="#ap"/><use transform="matrix(0.010850694444444444,0,0,0.010850694444444444,37.868923611111114,0)" xlink:href="#ab"/><use transform="matrix(0.010850694444444444,0,0,0.010850694444444444,50.82465277777778,0)" xlink:href="#aa"/><use transform="matrix(0.010850694444444444,0,0,0.010850694444444444,62.55425347222222,0)" xlink:href="#aa"/></g><path d="M200 0l662-1311v-12H98v-167h963v177L400 0H200" id="aN"/><g id="F"><use transform="matrix(0.010850694444444444,0,0,0.010850694444444444,0,0)" xlink:href="#aN"/><use transform="matrix(0.010850694444444444,0,0,0.010850694444444444,9.798177083333332,0)" xlink:href="#al"/></g><path d="M126 0v-134l627-806v-11H146v-167h839v143L376-178v11h629V0H126" id="aO"/><g id="G"><use transform="matrix(0.010850694444444444,0,0,0.010850694444444444,0,0)" xlink:href="#at"/><use transform="matrix(0.010850694444444444,0,0,0.010850694444444444,15.33203125,0)" xlink:href="#aE"/><use transform="matrix(0.010850694444444444,0,0,0.010850694444444444,28.47222222222222,0)" xlink:href="#ah"/><use transform="matrix(0.010850694444444444,0,0,0.010850694444444444,35.7421875,0)" xlink:href="#aF"/><use transform="matrix(0.010850694444444444,0,0,0.010850694444444444,48.88237847222222,0)" xlink:href="#aq"/><use transform="matrix(0.010850694444444444,0,0,0.010850694444444444,62.20703125,0)" xlink:href="#ac"/><use transform="matrix(0.010850694444444444,0,0,0.010850694444444444,70.92013888888889,0)" xlink:href="#af"/><use transform="matrix(0.010850694444444444,0,0,0.010850694444444444,76.30208333333333,0)" xlink:href="#aO"/><use transform="matrix(0.010850694444444444,0,0,0.010850694444444444,88.24869791666667,0)" xlink:href="#ab"/></g><path d="M633 20c-303 0-511-173-511-416 0-188 124-348 291-378v-8c-145-37-237-174-237-332 0-227 192-396 457-396 261 0 456 169 456 396 0 158-94 295-235 332v8c162 30 291 190 291 378 0 243-212 416-512 416zm0-165c197 0 322-103 322-261 0-165-138-283-322-283-188 0-324 118-324 283 0 158 123 261 324 261zm0-703c157 0 272-101 272-252 0-149-110-246-272-246-165 0-273 97-273 246 0 151 112 252 273 252" id="aP"/><g id="H"><use transform="matrix(0.010850694444444444,0,0,0.010850694444444444,0,0)" xlink:href="#aP"/><use transform="matrix(0.010850694444444444,0,0,0.010850694444444444,13.248697916666666,0)" xlink:href="#al"/></g><g id="I"><use transform="matrix(0.010850694444444444,0,0,0.010850694444444444,0,0)" xlink:href="#aC"/><use transform="matrix(0.010850694444444444,0,0,0.010850694444444444,13.975694444444445,0)" xlink:href="#ab"/><use transform="matrix(0.010850694444444444,0,0,0.010850694444444444,26.931423611111104,0)" xlink:href="#aJ"/><use transform="matrix(0.010850694444444444,0,0,0.010850694444444444,40.53819444444444,0)" xlink:href="#aE"/><use transform="matrix(0.010850694444444444,0,0,0.010850694444444444,53.678385416666664,0)" xlink:href="#ab"/><use transform="matrix(0.010850694444444444,0,0,0.010850694444444444,66.63411458333333,0)" xlink:href="#aa"/><use transform="matrix(0.010850694444444444,0,0,0.010850694444444444,78.36371527777777,0)" xlink:href="#ah"/></g><g id="J"><use transform="matrix(0.010850694444444444,0,0,0.010850694444444444,0,0)" xlink:href="#ao"/><use transform="matrix(0.010850694444444444,0,0,0.010850694444444444,12.47829861111111,0)" xlink:href="#ap"/><use transform="matrix(0.010850694444444444,0,0,0.010850694444444444,25.17361111111111,0)" xlink:href="#ap"/><use transform="matrix(0.010850694444444444,0,0,0.010850694444444444,37.868923611111114,0)" xlink:href="#ab"/><use transform="matrix(0.010850694444444444,0,0,0.010850694444444444,50.82465277777778,0)" xlink:href="#aa"/><use transform="matrix(0.010850694444444444,0,0,0.010850694444444444,62.55425347222222,0)" xlink:href="#aa"/></g><g id="K"><use transform="matrix(0.010850694444444444,0,0,0.010850694444444444,0,0)" xlink:href="#ac"/><use transform="matrix(0.010850694444444444,0,0,0.010850694444444444,7.996961805555555,0)" xlink:href="#ab"/><use transform="matrix(0.010850694444444444,0,0,0.010850694444444444,20.95269097222222,0)" xlink:href="#ar"/><use transform="matrix(0.010850694444444444,0,0,0.010850694444444444,29.17751736111111,0)" xlink:href="#ac"/><use transform="matrix(0.010850694444444444,0,0,0.010850694444444444,37.174479166666664,0)" xlink:href="#ab"/><use transform="matrix(0.010850694444444444,0,0,0.010850694444444444,50.13020833333333,0)" xlink:href="#aa"/><use transform="matrix(0.010850694444444444,0,0,0.010850694444444444,61.85980902777778,0)" xlink:href="#aF"/></g><path d="M158 0v-1490h180v865h22l478-493h223L593-638 1096 0H865L456-523 338-412V0H158" id="aQ"/><g id="L"><use transform="matrix(0.010850694444444444,0,0,0.010850694444444444,0,0)" xlink:href="#ah"/><use transform="matrix(0.010850694444444444,0,0,0.010850694444444444,7.052951388888888,0)" xlink:href="#aq"/><use transform="matrix(0.010850694444444444,0,0,0.010850694444444444,20.377604166666664,0)" xlink:href="#aQ"/><use transform="matrix(0.010850694444444444,0,0,0.010850694444444444,32.07465277777778,0)" xlink:href="#ab"/><use transform="matrix(0.010850694444444444,0,0,0.010850694444444444,45.03038194444444,0)" xlink:href="#ag"/><use transform="matrix(0.010850694444444444,0,0,0.010850694444444444,58.15972222222222,0)" xlink:href="#aa"/></g><path d="M646 20c-332 0-524-278-524-764 0-483 194-766 524-766s524 283 524 766c0 485-191 764-524 764zm0-166c218 0 341-220 341-598 0-380-123-601-341-601s-341 222-341 601c0 378 123 598 341 598" id="aR"/><g id="M"><use transform="matrix(0.010850694444444444,0,0,0.010850694444444444,0,0)" xlink:href="#ak"/><use transform="matrix(0.010850694444444444,0,0,0.010850694444444444,9.038628472222221,0)" xlink:href="#aR"/><use transform="matrix(0.010850694444444444,0,0,0.010850694444444444,22.493489583333332,0)" xlink:href="#al"/></g><g id="N"><use transform="matrix(0.010850694444444444,0,0,0.010850694444444444,0,0)" xlink:href="#aC"/><use transform="matrix(0.010850694444444444,0,0,0.010850694444444444,13.975694444444445,0)" xlink:href="#ab"/><use transform="matrix(0.010850694444444444,0,0,0.010850694444444444,26.931423611111104,0)" xlink:href="#ah"/><use transform="matrix(0.010850694444444444,0,0,0.010850694444444444,34.201388888888886,0)" xlink:href="#aE"/><use transform="matrix(0.010850694444444444,0,0,0.010850694444444444,47.34157986111111,0)" xlink:href="#ac"/><use transform="matrix(0.010850694444444444,0,0,0.010850694444444444,56.054687499999986,0)" xlink:href="#ag"/></g><g id="O"><use transform="matrix(0.010850694444444444,0,0,0.010850694444444444,0,0)" xlink:href="#ah"/><use transform="matrix(0.010850694444444444,0,0,0.010850694444444444,7.052951388888888,0)" xlink:href="#aq"/><use transform="matrix(0.010850694444444444,0,0,0.010850694444444444,20.377604166666664,0)" xlink:href="#aQ"/><use transform="matrix(0.010850694444444444,0,0,0.010850694444444444,32.07465277777778,0)" xlink:href="#ab"/><use transform="matrix(0.010850694444444444,0,0,0.010850694444444444,45.03038194444444,0)" xlink:href="#ag"/><use transform="matrix(0.010850694444444444,0,0,0.010850694444444444,58.15972222222222,0)" xlink:href="#aa"/></g><g id="P"><use transform="matrix(0.010850694444444444,0,0,0.010850694444444444,0,0)" xlink:href="#ak"/><use transform="matrix(0.010850694444444444,0,0,0.010850694444444444,9.038628472222221,0)" xlink:href="#ak"/><use transform="matrix(0.010850694444444444,0,0,0.010850694444444444,18.077256944444443,0)" xlink:href="#al"/></g><g id="Q"><use transform="matrix(0.010850694444444444,0,0,0.010850694444444444,0,0)" xlink:href="#ad"/><use transform="matrix(0.010850694444444444,0,0,0.010850694444444444,16.23263888888889,0)" xlink:href="#ac"/><use transform="matrix(0.010850694444444444,0,0,0.010850694444444444,24.229600694444443,0)" xlink:href="#ab"/><use transform="matrix(0.010850694444444444,0,0,0.010850694444444444,37.40234375,0)" xlink:href="#ao"/><use transform="matrix(0.010850694444444444,0,0,0.010850694444444444,49.88064236111111,0)" xlink:href="#ah"/><use transform="matrix(0.010850694444444444,0,0,0.010850694444444444,56.93359375000001,0)" xlink:href="#ab"/></g><g id="R"><use transform="matrix(0.010850694444444444,0,0,0.010850694444444444,0,0)" xlink:href="#aa"/><use transform="matrix(0.010850694444444444,0,0,0.010850694444444444,11.729600694444445,0)" xlink:href="#ab"/><use transform="matrix(0.010850694444444444,0,0,0.010850694444444444,24.68532986111111,0)" xlink:href="#aa"/><use transform="matrix(0.010850694444444444,0,0,0.010850694444444444,36.41493055555556,0)" xlink:href="#aa"/><use transform="matrix(0.010850694444444444,0,0,0.010850694444444444,48.14453125,0)" xlink:href="#af"/><use transform="matrix(0.010850694444444444,0,0,0.010850694444444444,53.52647569444444,0)" xlink:href="#aq"/><use transform="matrix(0.010850694444444444,0,0,0.010850694444444444,66.85112847222221,0)" xlink:href="#ag"/></g><g id="S"><use transform="matrix(0.010850694444444444,0,0,0.010850694444444444,0,0)" xlink:href="#ak"/><use transform="matrix(0.010850694444444444,0,0,0.010850694444444444,9.038628472222221,0)" xlink:href="#aw"/><use transform="matrix(0.010850694444444444,0,0,0.010850694444444444,22.591145833333332,0)" xlink:href="#al"/></g><g id="T"><use transform="matrix(0.010850694444444444,0,0,0.010850694444444444,0,0)" xlink:href="#aC"/><use transform="matrix(0.010850694444444444,0,0,0.010850694444444444,13.975694444444445,0)" xlink:href="#ab"/><use transform="matrix(0.010850694444444444,0,0,0.010850694444444444,26.931423611111104,0)" xlink:href="#aD"/><use transform="matrix(0.010850694444444444,0,0,0.010850694444444444,40.53819444444444,0)" xlink:href="#af"/><use transform="matrix(0.010850694444444444,0,0,0.010850694444444444,45.920138888888886,0)" xlink:href="#ac"/><use transform="matrix(0.010850694444444444,0,0,0.010850694444444444,53.917100694444436,0)" xlink:href="#ab"/><use transform="matrix(0.010850694444444444,0,0,0.010850694444444444,66.8728298611111,0)" xlink:href="#ap"/><use transform="matrix(0.010850694444444444,0,0,0.010850694444444444,79.5681423611111,0)" xlink:href="#ah"/></g><g id="U"><use transform="matrix(0.010850694444444444,0,0,0.010850694444444444,0,0)" xlink:href="#ah"/><use transform="matrix(0.010850694444444444,0,0,0.010850694444444444,7.052951388888888,0)" xlink:href="#aq"/></g><path d="M677 24c-213 0-288-135-325-197h-20V0H158v-1490h180v551h14c37-59 106-193 324-193 279 0 474 222 474 576 0 356-194 580-473 580zm-27-161c209 0 317-186 317-421 0-232-105-413-317-413-206 0-314 166-314 413 0 249 111 421 314 421" id="aS"/><g id="V"><use transform="matrix(0.010850694444444444,0,0,0.010850694444444444,0,0)" xlink:href="#aD"/><use transform="matrix(0.010850694444444444,0,0,0.010850694444444444,13.606770833333332,0)" xlink:href="#ao"/><use transform="matrix(0.010850694444444444,0,0,0.010850694444444444,26.085069444444443,0)" xlink:href="#aa"/><use transform="matrix(0.010850694444444444,0,0,0.010850694444444444,37.814670138888886,0)" xlink:href="#aF"/><use transform="matrix(0.010850694444444444,0,0,0.010850694444444444,50.95486111111111,0)" xlink:href="#aS"/><use transform="matrix(0.010850694444444444,0,0,0.010850694444444444,64.56163194444444,0)" xlink:href="#aq"/><use transform="matrix(0.010850694444444444,0,0,0.010850694444444444,78.1032986111111,0)" xlink:href="#ao"/><use transform="matrix(0.010850694444444444,0,0,0.010850694444444444,90.58159722222221,0)" xlink:href="#ac"/><use transform="matrix(0.010850694444444444,0,0,0.010850694444444444,98.57855902777777,0)" xlink:href="#aD"/></g><path d="M603 20c-253 0-434-161-469-399h188c31 132 124 231 281 231 227 0 367-207 367-568h-12c-80 122-211 199-367 199-257 0-469-206-469-493 0-278 200-505 506-500 245 4 520 158 520 706 0 527-208 824-545 824zm16-703c181 0 324-157 324-332 0-171-135-328-318-328-180 0-317 148-317 332 0 183 131 328 311 328" id="aT"/><g id="W"><use transform="matrix(0.010850694444444444,0,0,0.010850694444444444,0,0)" xlink:href="#aT"/><use transform="matrix(0.010850694444444444,0,0,0.010850694444444444,13.216145833333332,0)" xlink:href="#al"/></g><path d="M180 0v-1490h908v168H370v486h669v168H370v500h727V0H180" id="aU"/><g id="X"><use transform="matrix(0.010850694444444444,0,0,0.010850694444444444,0,0)" xlink:href="#aU"/><use transform="matrix(0.010850694444444444,0,0,0.010850694444444444,13.35720486111111,0)" xlink:href="#ac"/><use transform="matrix(0.010850694444444444,0,0,0.010850694444444444,22.0703125,0)" xlink:href="#ac"/><use transform="matrix(0.010850694444444444,0,0,0.010850694444444444,30.06727430555556,0)" xlink:href="#aq"/><use transform="matrix(0.010850694444444444,0,0,0.010850694444444444,43.391927083333336,0)" xlink:href="#ac"/></g><g id="Y"><use transform="matrix(0.010850694444444444,0,0,0.010850694444444444,0,0)" xlink:href="#ap"/><use transform="matrix(0.010850694444444444,0,0,0.010850694444444444,12.6953125,0)" xlink:href="#ac"/><use transform="matrix(0.010850694444444444,0,0,0.010850694444444444,20.692274305555557,0)" xlink:href="#ab"/><use transform="matrix(0.010850694444444444,0,0,0.010850694444444444,33.865017361111114,0)" xlink:href="#ao"/><use transform="matrix(0.010850694444444444,0,0,0.010850694444444444,46.34331597222223,0)" xlink:href="#ah"/><use transform="matrix(0.010850694444444444,0,0,0.010850694444444444,53.61328125000001,0)" xlink:href="#af"/><use transform="matrix(0.010850694444444444,0,0,0.010850694444444444,58.99522569444445,0)" xlink:href="#ag"/><use transform="matrix(0.010850694444444444,0,0,0.010850694444444444,72.12456597222223,0)" xlink:href="#ay"/></g></defs></g></svg>